<?xml version="1.0" standalone="no"?>
<!DOCTYPE svg PUBLIC "-//W3C//DTD SVG 20010904//EN"
 "http://www.w3.org/TR/2001/REC-SVG-20010904/DTD/svg10.dtd">
<svg version="1.0" xmlns="http://www.w3.org/2000/svg"
 width="783.000000pt" height="717.000000pt" viewBox="0 0 783.000000 717.000000"
 preserveAspectRatio="xMidYMid meet">

<g transform="translate(0.000000,717.000000) scale(0.100000,-0.100000)"
fill="#000000" stroke="none">
<path d="M5593 5262 c-152 -17 -55 -37 177 -37 176 0 231 7 199 25 -21 12
-296 20 -376 12z"/>
<path d="M5291 5129 c-53 -10 -53 -10 -66 -62 -9 -38 -14 -43 -64 -62 -38 -14
-57 -28 -64 -45 -5 -14 -17 -45 -27 -70 -26 -62 -23 -80 11 -80 24 0 30 6 44
48 9 26 21 56 25 68 5 12 24 30 44 40 23 12 44 35 58 64 20 38 29 46 63 54 61
13 87 25 83 39 -6 15 -50 18 -107 6z"/>
<path d="M6137 5123 c-22 -21 25 -37 80 -27 36 7 36 7 12 20 -25 14 -81 19
-92 7z"/>
<path d="M6285 5021 c-9 -30 3 -61 25 -61 27 0 33 16 18 47 -17 34 -35 40 -43
14z"/>
<path d="M1342 4959 c-20 -23 -47 -45 -59 -50 -46 -17 -56 -59 -63 -274 -9
-271 -8 -1895 1 -2174 9 -291 8 -286 67 -314 33 -16 52 -33 67 -62 l20 -40
102 -7 c56 -3 110 -11 121 -17 11 -6 27 -30 34 -53 12 -36 23 -47 63 -68 42
-21 52 -32 65 -70 16 -47 45 -70 89 -70 17 0 40 -16 70 -49 63 -68 92 -74 331
-69 188 3 193 3 209 26 37 54 69 80 114 97 32 11 52 26 62 45 8 16 35 45 60
65 31 26 48 49 55 76 25 90 30 91 589 87 535 -3 512 0 546 -86 15 -40 30 -61
60 -81 22 -15 46 -39 53 -55 10 -19 33 -36 78 -56 51 -23 66 -36 78 -63 20
-50 52 -57 252 -57 205 0 265 10 290 48 28 43 54 61 111 78 48 14 53 18 63 54
10 39 31 60 88 91 19 11 32 28 36 47 14 59 44 75 163 81 58 3 108 11 110 16
12 35 47 76 84 96 28 16 46 34 53 54 6 18 10 298 12 719 2 615 4 694 19 733
18 46 54 73 90 67 11 -2 41 -5 67 -6 27 -2 48 -6 48 -9 0 -4 14 -9 31 -13 22
-4 29 -10 26 -21 -4 -10 3 -16 27 -20 60 -12 80 -4 83 31 2 29 -1 33 -30 38
-32 7 -81 36 -59 36 7 0 12 4 12 10 0 14 -63 28 -160 35 -124 9 -161 21 -205
67 -36 37 -88 72 -160 108 -22 11 -36 31 -55 80 -35 89 -46 106 -79 126 -30
18 -49 45 -56 79 -2 11 -4 129 -4 261 -1 231 -2 242 -21 247 -31 8 -38 -38
-42 -270 -4 -196 -6 -215 -24 -240 -26 -35 -83 -51 -119 -35 -14 7 -35 32 -47
59 -21 44 -31 52 -98 83 -8 4 -26 27 -40 51 -23 38 -34 46 -90 65 -44 16 -71
32 -88 54 -46 59 -66 62 -405 68 -264 4 -311 7 -328 21 -16 13 -22 35 -29 106
-4 50 -11 97 -15 106 -3 9 -27 24 -51 34 -37 14 -49 25 -67 63 -15 31 -30 48
-47 53 -14 4 -497 7 -1073 8 l-1048 1 -37 -41z m1992 -289 c13 -13 15 -162 17
-1135 0 -616 -2 -1128 -6 -1138 -16 -39 -55 -47 -237 -47 -201 1 -292 15 -319
52 -10 12 -23 48 -29 78 -22 107 -27 117 -73 132 -40 12 -61 39 -89 111 -2 4
-28 14 -58 22 -61 16 -63 17 -175 71 -68 33 -92 39 -159 42 -78 4 -79 4 -135
-35 -31 -22 -81 -48 -111 -58 -95 -31 -129 -53 -173 -114 -23 -32 -49 -72 -58
-88 -9 -16 -41 -43 -72 -61 -31 -17 -61 -41 -67 -52 -6 -12 -25 -30 -42 -40
-38 -23 -60 -14 -85 33 -17 30 -18 102 -21 1087 -2 1029 -2 1056 17 1087 13
21 36 38 73 52 52 20 67 20 920 18 756 -2 869 -4 882 -17z m1049 -403 c15 -10
35 -33 43 -50 10 -21 33 -42 62 -57 35 -19 52 -36 68 -69 16 -34 31 -49 65
-65 33 -16 49 -32 65 -65 16 -34 33 -50 69 -68 36 -19 51 -34 66 -68 15 -33
29 -47 64 -64 35 -16 49 -31 67 -68 18 -38 33 -53 70 -70 40 -19 48 -28 63
-72 11 -35 29 -62 58 -86 35 -30 42 -43 48 -87 4 -29 6 -235 4 -458 -2 -418
-7 -466 -44 -501 -41 -39 -76 -28 -115 34 -10 16 -37 37 -60 48 -49 21 -67 39
-91 93 -21 44 -94 120 -139 143 -17 9 -52 22 -77 28 -25 7 -66 28 -92 48 -55
42 -91 51 -187 45 -53 -3 -74 -9 -92 -25 -29 -27 -136 -72 -207 -87 -50 -11
-55 -14 -68 -51 -17 -50 -37 -72 -80 -86 -28 -9 -39 -21 -59 -67 -28 -63 -79
-122 -105 -122 -30 0 -87 74 -94 122 -3 24 -5 408 -3 855 3 806 3 812 24 840
36 49 64 53 369 50 251 -2 284 -4 308 -20z m-2079 -1837 c58 -6 95 -15 105
-25 13 -13 16 -43 16 -178 0 -145 -2 -166 -20 -197 -27 -46 -74 -68 -160 -76
-94 -8 -149 7 -177 49 -11 18 -38 45 -59 60 -32 23 -40 36 -50 85 -9 42 -9 73
-2 118 19 111 40 133 148 160 63 15 88 16 199 4z m2281 -21 c73 -27 87 -55 93
-175 5 -102 -8 -141 -55 -169 -16 -9 -37 -31 -48 -48 -34 -53 -77 -69 -171
-63 -105 6 -159 28 -175 69 -7 18 -14 101 -17 192 -5 189 -1 200 83 215 76 14
227 3 290 -21z"/>
<path d="M6415 4870 c-8 -36 4 -212 15 -230 6 -9 10 -7 15 9 3 11 12 21 20 21
21 0 23 31 9 119 -17 108 -45 145 -59 81z"/>
<path d="M6560 4586 c-7 -25 -10 -67 -7 -95 12 -108 37 -85 37 34 0 99 -12
124 -30 61z"/>
<path d="M6427 4294 c-3 -16 -9 -56 -12 -89 -10 -87 -27 -120 -74 -144 -22
-11 -43 -31 -46 -43 -11 -36 -44 -66 -92 -84 -30 -12 -45 -24 -49 -40 -11 -41
-58 -72 -121 -79 -120 -12 -208 -26 -215 -33 -4 -4 -4 -21 0 -37 8 -27 11 -30
48 -26 21 1 91 14 154 27 63 13 125 24 138 24 13 0 39 16 60 38 21 21 57 49
80 62 32 18 45 33 54 62 12 39 24 54 62 73 36 18 50 62 50 165 1 70 -3 103
-15 124 l-17 30 -5 -30z"/>
<path d="M6403 3804 c-4 -11 1 -22 12 -31 26 -18 40 -12 40 18 0 30 -41 40
-52 13z"/>
<path d="M6554 3666 c-7 -19 3 -36 22 -36 10 0 14 8 12 22 -4 26 -26 36 -34
14z"/>
<path d="M6686 3533 c-8 -19 1 -33 20 -33 18 0 18 36 0 43 -8 3 -17 -1 -20
-10z"/>
<path d="M6823 3409 c-16 -16 -5 -39 18 -39 22 0 25 22 6 39 -10 8 -16 8 -24
0z"/>
<path d="M6950 3260 c0 -5 7 -10 15 -10 8 0 15 5 15 10 0 6 -7 10 -15 10 -8 0
-15 -4 -15 -10z"/>
</g>
</svg>
